name GIL06_free2.mot
datacolumns 153
datarows 4
range 0.64166659 0.66666663
endheader

                time	           pelvis_tx	           pelvis_ty	           pelvis_tz	         pelvis_tilt	         pelvis_list	     pelvis_rotation	       hip_flexion_r	     hip_adduction_r	      hip_rotation_r	        knee_angle_r	       ankle_angle_r	    subtalar_angle_r	         mtp_angle_r	       hip_flexion_l	     hip_adduction_l	      hip_rotation_l	        knee_angle_l	       ankle_angle_l	    subtalar_angle_l	         mtp_angle_l	    lumbar_extension	      lumbar_bending	     lumbar_rotation	     ground_force_vx	     ground_force_vy	     ground_force_vz	     ground_force_px	     ground_force_py	     ground_force_pz	     ground_force_vx	     ground_force_vy	     ground_force_vz	     ground_force_px	     ground_force_py	     ground_force_pz	     ground_torque_x	     ground_torque_y	     ground_torque_z	     ground_torque_x	     ground_torque_y	     ground_torque_z	    ground_marker_px	    ground_marker_py	    ground_marker_pz	    ground_marker_px	    ground_marker_py	    ground_marker_pz	    ground_marker_px	    ground_marker_py	    ground_marker_pz	    ground_marker_px	    ground_marker_py	    ground_marker_pz	    ground_marker_px	    ground_marker_py	    ground_marker_pz	    ground_marker_px	    ground_marker_py	    ground_marker_pz	    ground_marker_px	    ground_marker_py	    ground_marker_pz	    ground_marker_px	    ground_marker_py	    ground_marker_pz	    ground_marker_px	    ground_marker_py	    ground_marker_pz	    ground_marker_px	    ground_marker_py	    ground_marker_pz	    ground_marker_px	    ground_marker_py	    ground_marker_pz	    ground_marker_px	    ground_marker_py	    ground_marker_pz	    ground_marker_px	    ground_marker_py	    ground_marker_pz	    ground_marker_px	    ground_marker_py	    ground_marker_pz	    ground_marker_px	    ground_marker_py	    ground_marker_pz	    ground_marker_px	    ground_marker_py	    ground_marker_pz	    ground_marker_px	    ground_marker_py	    ground_marker_pz	    ground_marker_px	    ground_marker_py	    ground_marker_pz	    ground_marker_px	    ground_marker_py	    ground_marker_pz	    ground_marker_px	    ground_marker_py	    ground_marker_pz	    ground_marker_px	    ground_marker_py	    ground_marker_pz	    ground_marker_px	    ground_marker_py	    ground_marker_pz	    ground_marker_px	    ground_marker_py	    ground_marker_pz	    ground_marker_px	    ground_marker_py	    ground_marker_pz	    ground_marker_px	    ground_marker_py	    ground_marker_pz	    ground_marker_px	    ground_marker_py	    ground_marker_pz	    ground_marker_px	    ground_marker_py	    ground_marker_pz	    ground_marker_px	    ground_marker_py	    ground_marker_pz	    ground_marker_px	    ground_marker_py	    ground_marker_pz	    ground_marker_px	    ground_marker_py	    ground_marker_pz	    ground_marker_px	    ground_marker_py	    ground_marker_pz	    ground_marker_px	    ground_marker_py	    ground_marker_pz	    ground_marker_px	    ground_marker_py	    ground_marker_pz	    ground_marker_px	    ground_marker_py	    ground_marker_pz	    ground_marker_px	    ground_marker_py	    ground_marker_pz	    ground_marker_px	    ground_marker_py	    ground_marker_pz	    ground_marker_px	    ground_marker_py	    ground_marker_pz	
          0.64166659	          0.72160238	          0.83359909	         -0.25594571	         -4.08328056	         -2.45064044	          0.99406874	         29.72139359	          4.81894112	          6.40784121	        -19.91318703	         -7.25093365	          0.00000000	          0.00000000	         -7.67610693	         -3.88341784	         -4.23854256	        -29.99211884	         -6.45832586	          0.00000000	          0.00000000	         -3.57845521	          5.26129627	         -0.59528750	       -136.98496446	        616.40155857	        -26.45771176	          0.80656134	          0.00000000	         -0.19265076	         85.22459643	        201.45413281	        -13.98322402	          0.33834979	          0.00000000	         -0.30588193	          0.00000000	         -1.29748035	          0.00000000	          0.00000000	         -0.89394312	          0.00000000	          0.61307341	          0.75780058	         -0.25155044	          0.59622151	          0.76422554	         -0.17195025	          0.59178394	          0.75858045	         -0.32741365	          0.76119095	          0.41744673	         -0.19642746	          0.51753175	          0.40426770	         -0.33698097	          0.79803061	          0.06069192	         -0.19458792	          0.27106482	          0.12660742	         -0.32142076	          0.72160238	          0.83359909	         -0.25594571	          0.72513777	          0.83809650	         -0.13208991	          0.71806699	          0.82910174	         -0.37980151	          0.47894689	          0.90522194	         -0.21988101	          0.47575027	          0.90359992	         -0.27455494	          0.77298290	          0.41807896	         -0.12590937	          0.51131475	          0.40749198	         -0.40813714	          0.74374574	          0.41616595	         -0.26868516	          0.52351260	          0.40063336	         -0.24702176	          0.79527622	          0.06060550	         -0.15618667	          0.25830305	          0.13590644	         -0.35762733	          0.80065501	          0.06947094	         -0.23170683	          0.27575147	          0.14585496	         -0.28070554	          0.49609575	          1.32281959	         -0.25975209	          0.62772709	          1.26235914	         -0.22153260	          0.62718892	          1.26676071	         -0.30375966	          0.61081982	          1.25886631	         -0.27494508	          0.66722524	          1.18849492	         -0.27796113	          0.84853029	          0.61874330	         -0.13113391	          0.73660743	          0.55145413	         -0.35366508	          0.80485886	          0.62420362	         -0.14531645	          0.69302154	          0.57569569	         -0.35601097	          0.81152266	          0.54777706	         -0.15530421	          0.65975213	          0.50888330	         -0.35217240	          0.87309784	          0.21332237	         -0.18173715	          0.32548618	          0.21715532	         -0.43013245	          0.82679784	          0.21462168	         -0.18767084	          0.33192712	          0.22833230	         -0.38391891	          0.90861869	          0.04675196	         -0.19598494	          0.33169982	          0.04910607	         -0.32102227	
          0.64999998	          0.73236060	          0.83556628	         -0.25361878	         -3.73687840	         -2.73276854	          0.62137276	         28.84872055	          5.60149908	          7.05941296	        -20.56853867	         -6.28652191	          0.00000000	          0.00000000	         -7.14827967	         -4.84655094	         -4.27279949	        -32.48480606	         -9.72798061	          0.00000000	          0.00000000	         -3.96261311	          5.35272551	         -0.01755672	       -140.97284330	        647.58622729	        -27.45891536	          0.80959937	          0.00000000	         -0.19310402	         55.75003341	        125.88977766	        -12.14609232	          0.34283197	          0.00000000	         -0.30460056	          0.00000000	         -1.67755933	          0.00000000	          0.00000000	         -0.81502771	          0.00000000	          0.62435889	          0.75916344	         -0.24923089	          0.60700923	          0.76594478	         -0.16978467	          0.60337234	          0.75926107	         -0.32522765	          0.76855320	          0.41806963	         -0.19617806	          0.53430754	          0.40235934	         -0.33903775	          0.79816598	          0.06073032	         -0.19486867	          0.28080574	          0.13181593	         -0.32247517	          0.73236060	          0.83556628	         -0.25361878	          0.73524767	          0.84087217	         -0.13022119	          0.72947347	          0.83026046	         -0.37701640	          0.48893690	          0.90594959	         -0.21953756	          0.48611110	          0.90383244	         -0.27422345	          0.78109717	          0.41855425	         -0.12578869	          0.52855307	          0.40622655	         -0.41020080	          0.74862903	          0.41859338	         -0.26808968	          0.54298097	          0.39642638	         -0.24805433	          0.79592538	          0.06068547	         -0.15643394	          0.26816788	          0.14144376	         -0.35863921	          0.79957300	          0.06957741	         -0.23201755	          0.28660288	          0.15036453	         -0.28175175	          0.50617957	          1.32403731	         -0.25787735	          0.63763201	          1.26410937	         -0.22006503	          0.63671476	          1.26819122	         -0.30218601	          0.62055320	          1.26021409	         -0.27367151	          0.67698163	          1.19008493	         -0.27633214	          0.85820299	          0.61964262	         -0.13151848	          0.75129175	          0.55361336	         -0.35257563	          0.81401241	          0.62558264	         -0.14531291	          0.70719105	          0.57709038	         -0.35508806	          0.81973553	          0.54931009	         -0.15560167	          0.67643887	          0.50997049	         -0.35182688	          0.87653756	          0.21165609	         -0.18300311	          0.33705038	          0.22057952	         -0.43134007	          0.82996255	          0.21371940	         -0.18804282	          0.34442851	          0.23146942	         -0.38506809	          0.90918988	          0.04633297	         -0.19639978	          0.33547184	          0.04939526	         -0.32092783	
          0.65833330	          0.74293613	          0.83762074	         -0.25128883	         -3.37415791	         -3.02850151	          0.24292175	         27.87423325	          6.39748716	          7.77689505	        -21.07066917	         -5.29624271	          0.00000000	          0.00000000	         -6.54716253	         -5.83405352	         -4.31926727	        -35.03069687	        -13.10144615	          0.00000000	          0.00000000	         -4.35057116	          5.58452177	          0.71992815	       -142.17938445	        675.76962032	        -28.03268105	          0.81254010	          0.00000000	         -0.19366656	         28.84269444	         69.75061806	         -8.03312569	          0.34983850	          0.00000000	         -0.30247647	          0.00000000	         -2.06446851	          0.00000000	          0.00000000	         -0.64955994	          0.00000000	          0.63548845	          0.76058543	         -0.24688277	          0.61763316	          0.76772881	         -0.16760746	          0.61481708	          0.75997573	         -0.32301784	          0.77525759	          0.41856676	         -0.19590752	          0.55161464	          0.40035641	         -0.34114465	          0.79811096	          0.06076759	         -0.19511530	          0.29162246	          0.13701354	         -0.32354984	          0.74293613	          0.83762074	         -0.25128883	          0.74516320	          0.84375209	         -0.12838568	          0.74070913	          0.83148932	         -0.37419200	          0.49877977	          0.90664005	         -0.21912636	          0.49629521	          0.90408057	         -0.27380428	          0.78860795	          0.41890046	         -0.12566577	          0.54627335	          0.40488181	         -0.41230112	          0.75388199	          0.42029226	         -0.26763779	          0.56230110	          0.39194888	         -0.24928790	          0.79637694	          0.06074200	         -0.15665437	          0.27910575	          0.14695762	         -0.35967043	          0.79882836	          0.06996374	         -0.23232715	          0.29804841	          0.15528935	         -0.28281394	          0.51628673	          1.32523799	         -0.25664139	          0.64761037	          1.26565814	         -0.21898855	          0.64612031	          1.26963997	         -0.30112445	          0.63026702	          1.26159275	         -0.27243823	          0.68664402	          1.19160509	         -0.27544641	          0.86755461	          0.62019402	         -0.13205250	          0.76611090	          0.55600697	         -0.35155636	          0.82284135	          0.62627405	         -0.14533444	          0.72104508	          0.57812887	         -0.35397914	          0.82796001	          0.55026019	         -0.15605564	          0.69273412	          0.51099837	         -0.35151577	          0.87961364	          0.21010736	         -0.18421532	          0.34946218	          0.22390203	         -0.43254068	          0.83333707	          0.21354678	         -0.18871307	          0.35748199	          0.23467363	         -0.38635939	          0.90960330	          0.04611172	         -0.19673693	          0.33988133	          0.05011665	         -0.32082233	
          0.66666663	          0.75331283	          0.83969241	         -0.24899280	         -3.01211929	         -3.33016515	         -0.12891653	         26.81047058	          7.18153763	          8.50834656	        -21.38452339	         -4.36167240	          0.00000000	          0.00000000	         -5.86528444	         -6.82261372	         -4.37399387	        -37.61436462	        -16.34912491	          0.00000000	          0.00000000	         -4.69951105	          5.89497471	          1.60903180	       -141.26625991	        701.21858544	        -28.33348219	          0.81547046	          0.00000000	         -0.19432275	         10.62903062	         34.39057234	         -3.55142953	          0.35624368	          0.00000000	         -0.30055316	          0.00000000	         -2.40330322	          0.00000000	          0.00000000	         -0.39925891	          0.00000000	          0.64642644	          0.76202446	         -0.24451098	          0.62807000	          0.76953071	         -0.16544721	          0.62606651	          0.76070815	         -0.32081315	          0.78123456	          0.41893828	         -0.19557175	          0.56935602	          0.39832175	         -0.34323266	          0.79797852	          0.06079977	         -0.19531815	          0.30342463	          0.14220963	         -0.32463843	          0.75331283	          0.83969241	         -0.24899280	          0.75489116	          0.84664315	         -0.12659021	          0.75173444	          0.83274168	         -0.37139538	          0.50847864	          0.90729421	         -0.21864569	          0.50628370	          0.90436268	         -0.27326187	          0.79538465	          0.41909796	         -0.12548608	          0.56436044	          0.40350449	         -0.41436937	          0.76150507	          0.42026192	         -0.26735118	          0.57907319	          0.39010134	         -0.25172046	          0.79668754	          0.06076666	         -0.15683982	          0.29104447	          0.15244450	         -0.36072487	          0.79876220	          0.07011577	         -0.23259671	          0.31109121	          0.15982644	         -0.28408730	          0.52604127	          1.32650256	         -0.25568342	          0.65783918	          1.26695704	         -0.21794805	          0.65555739	          1.27098978	         -0.30034074	          0.63997632	          1.26294613	         -0.27124265	          0.69640404	          1.19297624	         -0.27494803	          0.87652069	          0.62027794	         -0.13258138	          0.78100097	          0.55863255	         -0.35062510	          0.83083427	          0.62679863	         -0.14577430	          0.73599064	          0.57964337	         -0.35346860	          0.83624941	          0.55034471	         -0.15664703	          0.70868063	          0.51171798	         -0.35168424	          0.88234431	          0.20867133	         -0.18522184	          0.36269954	          0.22713038	         -0.43371066	          0.83661944	          0.21342655	         -0.18966037	          0.37153581	          0.23737794	         -0.38812175	          0.90989280	          0.04599338	         -0.19699121	          0.34519729	          0.05144261	         -0.32077733	
